# xmcd
#
# Track frame offsets:
#	182
#	25515
#	57410
#	77650
#	145582
#
# Disc length: 2175
#
# Revision: 1
# Processed by: cddbd v1.5.1PL0 Copyright (c) Steve Scherf et al.
# Submitted via: FreeRIP 2.70 
# Normalized: r0:TRMNUM
#
DISCID=33087d05
DTITLE=Tokody, Takacs, Kelen, Soylom-Nagy, Gardelli
DYEAR=1900
DGENRE=Opera
TTITLE0=Act 2, Udite!
TTITLE1=Act 2, Monica, Che Vuoi?
TTITLE2=Act 2, E dite al Papa
TTITLE3=Act 2, Voglio che il figlio tuo
TTITLE4=Act 2 - Evocare!
EXTD=
EXTT0=
EXTT1=
EXTT2=
EXTT3=
EXTT4=
PLAYORDER=
